# AST/ASF file generated using VICON BodyLanguage
# -----------------------------------------------
:version 1.10
:name VICON
:units
  mass 1.0
  length 0.45
  angle deg
:documentation
   .ast/.asf automatically generated from VICON data using
   VICON BodyBuilder and BodyLanguage model FoxedUp or BRILLIANT.MOD
:root
   order TX TY TZ RX RY RZ
   axis XYZ
   position 0 0 0  
   orientation 0 0 0 
:bonedata
  begin
     id 1 
     name lhipjoint
     direction 0.729592 -0.560644 0.39163 
     length 2.81907 
     axis 0 0 0  XYZ
  end
  begin
     id 2 
     name lfemur
     direction 0.34202 -0.939693 0  
     length 5.92797  
     axis 0 0 20  XYZ
    dof rx ry rz
    limits (-160.0 20.0)
           (-70.0 70.0)
           (-60.0 70.0)
  end
  begin
     id 3 
     name ltibia
     direction 0.34202 -0.939693 0   
     length 7.88118   
     axis 0 0 20   XYZ
    dof rx
    limits (-10.0 170.0)
  end
  begin
     id 4 
     name lfoot
     direction 0.0476411 -0.130893 0.990251   
     length 1.97348   
     axis -90 7.62852e-016 20   XYZ
    dof rx rz
    limits (-45.0 90.0)
           (-70.0 20.0)
  end
  begin
     id 5 
     name ltoes
     direction 1.53635e-011 -4.21786e-011 1   
     length 0.999366   
     axis -90 7.62852e-016 20   XYZ
    dof rx
    limits (-90.0 20.0)
  end
  begin
     id 6 
     name rhipjoint
     direction -0.702143 -0.583724 0.407752   
     length 2.70761  
     axis 0 0 0  XYZ 
  end
  begin
     id 7 
     name rfemur
     direction -0.34202 -0.939693 0   
     length 5.98021   
     axis 0 0 -20   XYZ
    dof rx ry rz
    limits (-160.0 20.0)
           (-70.0 70.0)
           (-70.0 60.0)
  end
  begin
     id 8 
     name rtibia
     direction -0.34202 -0.939693 0   
     length 7.66627   
     axis 0 0 -20   XYZ
    dof rx
    limits (-10.0 170.0)
 end
 begin
     id 9 
     name rfoot
     direction -0.0516088 -0.141794 0.98855   
     length 2.01387  
     axis -90 -7.62852e-016 -20   XYZ
    dof rx rz
    limits (-45.0 90.0)
           (-20.0 70.0)
  end
  begin
     id 10 
     name rtoes
     direction -1.53568e-011 -4.21939e-011 1   
     length 1.01862   
     axis -90 -7.62852e-016 -20   XYZ
    dof rx
    limits (-90.0 20.0)
  end
  begin
     id 11 
     name lowerback
     direction -0.0436953 0.98817 -0.147007   
     length 1.83615   
     axis 0 0 0   XYZ
    dof rx ry rz
    limits (-20.0 45.0)
           (-30.0 30.0)
           (-30.0 30.0)
  end
  begin
     id 12 
     name upperback
     direction 0.0239184 0.998197 0.0550483   
     length 1.80285   
     axis 0 0 0   XYZ
    dof rx ry rz
    limits (-20.0 45.0)
           (-30.0 30.0)
           (-30.0 30.0)
  end
  begin
     id 13 
     name thorax
     direction 0.0460768 0.990713 0.127927   
     length 1.87059   
     axis 0 0 0   XYZ
    dof rx ry rz
    limits (-20.0 45.0)
           (-30.0 30.0)
           (-30.0 30.0)
  end
  begin
     id 14 
     name lowerneck
     direction -0.0234223 0.997727 0.0631897   
     length 1.79511   
     axis 0 0 0   XYZ
    dof rx ry rz
    limits (-20.0 45.0)
           (-30.0 30.0)
           (-30.0 30.0)
  end
  begin
     id 15 
     name upperneck
     direction 0.0345303 0.984409 -0.172474   
     length 1.80359   
     axis 0 0 0   XYZ
    dof rx ry rz
    limits (-20.0 45.0)
           (-30.0 30.0)
           (-30.0 30.0)
  end
  begin
     id 16
     name head
     direction 0.00973222 0.9978 -0.0655778  
     length 1.81938  
     axis 0 0 0   XYZ
    dof rx ry rz
    limits (-20.0 45.0)
           (-30.0 30.0)
           (-30.0 30.0)
  end
  begin
     id 17 
     name lclavicle
     direction 0.971201 0.212597 -0.10757  
     length 3.74698  
     axis 0 0 0   XYZ
    dof ry rz
    limits (-20.0 10.0)
           (0.0 20.0)
  end
  begin
     id 18 
     name lhumerus
     direction 1 -4.4896e-011 1.42684e-027   
     length 4.83799   
     axis 180 -30 -90   XYZ
    dof rx ry rz
    limits (-60.0 90.0)
           (-90.0 90.0)
           (-90.0 90.0)
  end
  begin
     id 19
     name lradius
     direction 1 -4.48978e-011 1.53407e-026   
     length 2.68259   
     axis 180 -30 -90   XYZ
    dof rx
    limits (-10.0 170.0)
  end
  begin
     id 20
     name lwrist
     direction 1 -4.48982e-011 3.34345e-026   
     length 1.34129   
     axis -2.22354e-014 90 90   XYZ
    dof ry
    limits (-180.0 0.0)
 end
  begin
     id 21 
     name lhand
     direction 1 -4.48992e-011 6.6869e-026   
     length 0.724765   
     axis -4.26681e-014 90 90   XYZ
    dof rx rz
    limits (-90.0 90.0)
           (-45.0 45.0)
  end
  begin
     id 22 
     name lfingers
     direction 1 -4.48965e-011 1.33738e-025   
     length 0.584325   
     axis -8.53362e-014 90 90   XYZ
    dof rx
    limits (0.0 90.0)
  end
  begin
     id 23
     name lthumb
     direction 0.707107 -6.34915e-011 0.707107   
     length 0.838977   
     axis -90 45 2.85299e-015   XYZ
    dof rx rz
    limits (-45.0 45.0)
           (-45.0 45.0)
  end
  begin
     id 24 
     name rclavicle
     direction -0.987829 0.146084 -0.0534135   
     length 3.83678  
     axis 0 0 0   XYZ 
    dof ry rz
    limits (-10.0 20.0)
           (-20.0 0.0)
  end
  begin
     id 25 
     name rhumerus
     direction -1 -4.48963e-011 -3.4086e-018  
     length 4.61639   
     axis 180 30 90   XYZ
    dof rx ry rz
    limits (-90.0 60.0)
           (-90.0 90.0)
           (-90.0 90.0)
  end
  begin
     id 26 
     name rradius
     direction -1 -4.48983e-011 1.36226e-026   
     length 2.86915   
     axis 180 30 90   XYZ
    dof rx
    limits (-10.0 170.0)
  end
  begin
     id 27 
     name rwrist
     direction -1 -4.48927e-011 3.34345e-026   
     length 1.43458   
     axis -2.22354e-014 -90 -90   XYZ
    dof ry
    limits (-180.0 0.0)
  end
  begin
     id 28
     name rhand
     direction -1 -4.49071e-011 6.6869e-026   
     length 0.726007   
     axis -4.26681e-014 -90 -90   XYZ
    dof rx rz
    limits (-90.0 90.0)
           (-45.0 45.0)
  end
  begin
     id 29
     name rfingers
     direction -1 -4.48886e-011 1.33738e-025   
     length 0.585326   
     axis -8.53362e-014 -90 -90   XYZ
    dof rx
    limits (0.0 90.0)
  end
  begin
     id 30
     name rthumb
     direction -0.707107 -6.34932e-011 0.707107   
     length 0.840414   
     axis -90 -45 -2.85299e-015   XYZ
    dof rx rz
    limits (-45.0 45.0)
           (-45.0 45.0)
  end
:hierarchy
  begin
    root lhipjoint rhipjoint lowerback
    lhipjoint lfemur
    lfemur ltibia
    ltibia lfoot
    lfoot ltoes
    rhipjoint rfemur
    rfemur rtibia
    rtibia rfoot
    rfoot rtoes
    lowerback upperback
    upperback thorax
    thorax lowerneck lclavicle rclavicle
    lowerneck upperneck
    upperneck head
    lclavicle lhumerus
    lhumerus lradius
    lradius lwrist
    lwrist lhand lthumb
    lhand lfingers
    rclavicle rhumerus
    rhumerus rradius
    rradius rwrist
    rwrist rhand rthumb
    rhand rfingers
  end

#!OML:ASF F:\VICON\USERDATA\INSTALL\rory3\rory3.ASF
:FULLY-SPECIFIED
:DEGREES
352
root -0.680734 16.1218 15.7458 -0.427902 -3.50546 5.35649
lowerback 12.3581 1.07429 -7.7747
upperback -4.65989 0.115527 0.171124
thorax -12.1599 0.668357 4.55774
lowerneck -9.36996 -4.36234 -3.64691
upperneck 19.2362 -5.76897 1.76232
head 7.61973 -2.8654 0.639156
rclavicle 1.63252e-014 -3.97569e-016
rhumerus -42.63 -4.16314 -83.0083
rradius 20.0051
rwrist 14.5113
rhand -7.64222 20.5907
rfingers 7.12502
rthumb 18.2531 -8.57288
lclavicle 1.63252e-014 -3.97569e-016
lhumerus -36.5615 7.69491 82.1318
lradius 19.247
lwrist -4.21501
lhand -6.98018 20.4622
lfingers 7.12502
lthumb 18.8899 49.5649
rfemur -20.1631 -1.96458 14.5318
rtibia 74.7548
rfoot 11.5151 -4.27869
rtoes 15.9675
lfemur -11.319 -9.58651 -30.5285
ltibia 24.2802
lfoot -8.10992 7.32852
ltoes 31.7534
353
root -0.665175 16.1247 15.8771 -0.549393 -3.50612 5.36374
lowerback 12.4324 0.965867 -7.74002
upperback -4.61901 -0.0252296 0.207181
thorax -12.1367 0.598939 4.61066
lowerneck -9.18562 -4.20336 -3.66289
upperneck 19.102 -5.55351 1.77941
head 7.53717 -2.76425 0.673702
rclavicle -6.21202e-015 3.18055e-015
rhumerus -42.9847 -4.29971 -82.7723
rradius 20.0067
rwrist 14.7543
rhand -7.71543 20.7369
rfingers 7.12502
rthumb 18.1826 -8.43329
lclavicle -6.21202e-015 3.18055e-015
lhumerus -36.476 7.48624 82.2113
lradius 19.8116
lwrist -3.49008
lhand -7.10335 20.5175
lfingers 7.12502
lthumb 18.7714 49.6317
rfemur -21.4098 -2.28306 14.6667
rtibia 75.3429
rfoot 9.2288 -2.98278
rtoes 15.6907
lfemur -10.3896 -9.77738 -30.7635
ltibia 23.9394
lfoot -8.5576 7.45994
ltoes 32.0576
354
root -0.650419 16.1183 16.0029 -0.64379 -3.43108 5.5631
lowerback 12.47 0.857939 -7.95583
upperback -4.56104 -0.207968 0.216253
thorax -12.0697 0.525354 4.7848
lowerneck -8.98423 -4.05877 -3.70494
upperneck 18.9352 -5.36416 1.84976
head 7.44397 -2.67257 0.727411
rclavicle -1.07592e-014 -1.39149e-014
rhumerus -43.2115 -4.28872 -82.6266
rradius 19.8335
rwrist 14.6886
rhand -8.04788 21.2081
rfingers 7.12502
rthumb 17.8628 -7.99151
lclavicle -1.07592e-014 -1.39149e-014
lhumerus -36.286 7.66335 82.1106
lradius 20.215
lwrist -3.41546
lhand -7.14725 20.6061
lfingers 7.12502
lthumb 18.7292 49.7244
rfemur -22.6545 -2.61854 14.5733
rtibia 75.7307
rfoot 7.12831 -2.15572
rtoes 17.3653
lfemur -9.56641 -9.91217 -31.1993
ltibia 23.6511
lfoot -8.9471 7.51384
ltoes 32.1335
355
root -0.638357 16.1088 16.1238 -0.677653 -3.2602 5.7553
lowerback 12.5406 0.722035 -8.18764
upperback -4.56288 -0.437134 0.22581
thorax -12.0833 0.436174 4.97959
lowerneck -9.10778 -4.00209 -3.58068
upperneck 19.1824 -5.27135 1.66077
head 7.53556 -2.63542 0.649735
rclavicle -6.01324e-015 1.19271e-014
rhumerus -43.5031 -4.27074 -82.5154
rradius 19.7518
rwrist 14.6436
rhand -8.45457 21.6584
rfingers 7.12502
rthumb 17.4714 -7.57651
lclavicle -6.01324e-015 1.19271e-014
lhumerus -36.108 7.46717 82.1659
lradius 20.4895
lwrist -3.10174
lhand -7.16263 20.506
lfingers 7.12502
lthumb 18.7144 49.6257
rfemur -23.9139 -3.09144 14.5229
rtibia 75.9449
rfoot 5.14195 -1.31471
rtoes 16.6239
lfemur -8.92276 -9.99061 -31.6015
ltibia 23.4944
lfoot -9.22839 7.45449
ltoes 32.1349
356
root -0.626886 16.0996 16.2488 -0.706831 -3.13211 5.89636
lowerback 12.6243 0.609334 -8.38295
upperback -4.5631 -0.626053 0.272104
thorax -12.1067 0.365563 5.18593
lowerneck -9.4281 -3.98636 -3.52266
upperneck 19.5249 -5.21213 1.44176
head 7.69659 -2.62037 0.56468
rclavicle 2.83268e-015 7.55382e-015
rhumerus -43.8184 -4.25382 -82.328
rradius 19.8214
rwrist 14.6398
rhand -8.58004 21.9475
rfingers 7.12502
rthumb 17.3507 -7.29803
lclavicle 2.83268e-015 7.55382e-015
lhumerus -35.855 7.25249 82.3008
lradius 20.657
lwrist -2.73194
lhand -7.36651 20.2038
lfingers 7.12502
lthumb 18.5183 49.3423
rfemur -25.0802 -3.42679 14.566
rtibia 75.9687
rfoot 3.35271 -1.0106
rtoes 15.6229
lfemur -8.39763 -10.1024 -31.944
ltibia 23.528
lfoot -9.60025 7.29956
ltoes 32.8627
357
root -0.617094 16.0875 16.3735 -0.710262 -3.07684 5.83111
lowerback 12.6873 0.535631 -8.40474
upperback -4.53504 -0.722731 0.369832
thorax -12.0963 0.325284 5.33001
lowerneck -9.66094 -3.95008 -3.49059
upperneck 19.674 -5.14267 1.34489
head 7.78239 -2.59207 0.528265
rclavicle 3.45388e-015 1.07344e-014
rhumerus -43.9676 -4.31388 -82.1306
rradius 19.7497
rwrist 14.2858
rhand -8.72977 22.2661
rfingers 7.12502
rthumb 17.2065 -6.99209
lclavicle 3.45388e-015 1.07344e-014
lhumerus -35.5863 7.1772 82.3858
lradius 20.9813
lwrist -2.63622
lhand -7.44961 19.878
lfingers 7.12502
lthumb 18.4384 49.0241
rfemur -26.2523 -3.5435 14.9032
rtibia 75.8017
rfoot 1.77758 -1.23669
rtoes 16.3006
lfemur -7.97555 -10.2633 -32.0555
ltibia 23.6999
lfoot -10.1033 7.14682
ltoes 33.9196
358
root -0.605422 16.0769 16.4897 -0.575529 -3.07697 5.62093
lowerback 12.692 0.434775 -8.21117
upperback -4.58722 -0.81461 0.479376
thorax -12.142 0.276217 5.36363
lowerneck -9.67267 -3.85707 -3.48505
upperneck 19.7626 -5.01713 1.34703
head 7.81038 -2.53177 0.539489
rclavicle 2.08724e-015 -1.39149e-014
rhumerus -44.2135 -4.13699 -82.1652
rradius 19.8765
rwrist 13.6065
rhand -8.83253 22.3992
rfingers 7.12502
rthumb 17.1076 -6.86756
lclavicle 2.08724e-015 -1.39149e-014
lhumerus -35.3418 6.85062 82.5478
lradius 21.317
lwrist -2.01607
lhand -7.45745 19.8785
lfingers 7.12502
lthumb 18.4308 49.0253
rfemur -27.585 -3.61236 15.4387
rtibia 75.4227
rfoot 0.236549 -1.62284
rtoes 17.469
lfemur -7.79574 -10.4619 -31.9992
ltibia 23.9898
lfoot -10.6159 7.25758
ltoes 33.4467
